<svg width="388" height="180" viewBox="0 0 388 180" fill="none" xmlns="http://www.w3.org/2000/svg">
<path d="M0.545455 134V40.9091H27.8182C33.0303 40.9091 37.6364 42.0758 41.6364 44.4091C45.6667 46.7424 48.8182 49.9545 51.0909 54.0455C53.3939 58.1364 54.5455 62.8485 54.5455 68.1818C54.5455 73.4545 53.3939 78.1364 51.0909 82.2273C48.8182 86.2879 45.6667 89.4848 41.6364 91.8182C37.6364 94.1212 33.0303 95.2727 27.8182 95.2727H2V92.3636H27.8182C32.4849 92.3636 36.6061 91.3333 40.1818 89.2727C43.7576 87.2121 46.5606 84.3636 48.5909 80.7273C50.6212 77.0909 51.6364 72.9091 51.6364 68.1818C51.6364 63.4242 50.6212 59.2121 48.5909 55.5455C46.5606 51.8788 43.7576 49.0151 40.1818 46.9545C36.6061 44.8636 32.4849 43.8182 27.8182 43.8182H3.45455V134H0.545455ZM56.4686 40.9091H60.105L91.1959 86.5455H91.5595L122.65 40.9091H126.287L92.8323 89.8182V134H89.9232V89.8182L56.4686 40.9091ZM306.14 40.9091V134H303.23V40.9091H306.14ZM383.129 64.1818C382.674 57.8182 380.235 52.5909 375.81 48.5C371.417 44.4091 365.613 42.3636 358.401 42.3636C353.674 42.3636 349.447 43.2727 345.72 45.0909C341.992 46.9091 339.053 49.4091 336.901 52.5909C334.75 55.7424 333.674 59.3636 333.674 63.4545C333.674 65.8182 334.068 68 334.856 70C335.644 72 336.841 73.8333 338.447 75.5C340.083 77.1364 342.129 78.6212 344.583 79.9545C347.068 81.2576 349.977 82.4242 353.31 83.4545L363.856 86.7273C367.886 87.9697 371.371 89.3636 374.31 90.9091C377.25 92.4545 379.674 94.197 381.583 96.1364C383.523 98.0455 384.962 100.182 385.901 102.545C386.841 104.879 387.31 107.485 387.31 110.364C387.31 115.212 386.068 119.53 383.583 123.318C381.098 127.106 377.629 130.076 373.174 132.227C368.72 134.379 363.553 135.455 357.674 135.455C352.007 135.455 347.053 134.47 342.81 132.5C338.568 130.5 335.204 127.758 332.72 124.273C330.265 120.758 328.886 116.727 328.583 112.182H331.492C331.795 116.182 333.053 119.712 335.265 122.773C337.477 125.833 340.477 128.227 344.265 129.955C348.083 131.682 352.553 132.545 357.674 132.545C363.007 132.545 367.674 131.621 371.674 129.773C375.704 127.894 378.826 125.288 381.038 121.955C383.28 118.621 384.401 114.758 384.401 110.364C384.401 107.03 383.674 104.106 382.22 101.591C380.765 99.0455 378.477 96.803 375.356 94.8636C372.235 92.9242 368.159 91.1818 363.129 89.6364L352.583 86.3636C345.28 84.0606 339.81 81.0151 336.174 77.2273C332.568 73.4394 330.765 68.8485 330.765 63.4545C330.765 58.8788 331.962 54.7879 334.356 51.1818C336.75 47.5455 340.023 44.6818 344.174 42.5909C348.356 40.5 353.098 39.4545 358.401 39.4545C363.735 39.4545 368.417 40.5151 372.447 42.6364C376.477 44.7576 379.674 47.6818 382.038 51.4091C384.401 55.1364 385.735 59.3939 386.038 64.1818H383.129Z" fill="#181F61"/>
<path d="M0.545455 134H-1.45455V136H0.545455V134ZM0.545455 40.9091V38.9091H-1.45455V40.9091H0.545455ZM41.6364 44.4091L40.6286 46.1367L40.6343 46.1399L41.6364 44.4091ZM51.0909 54.0455L49.3426 55.0168L49.3481 55.0266L51.0909 54.0455ZM51.0909 82.2273L49.3481 81.2461L49.3457 81.2505L51.0909 82.2273ZM41.6364 91.8182L42.6343 93.5514L42.6384 93.549L41.6364 91.8182ZM2 95.2727H0V97.2727H2V95.2727ZM2 92.3636V90.3636H0V92.3636H2ZM40.1818 89.2727L39.1832 87.5399L39.1832 87.5399L40.1818 89.2727ZM48.5909 80.7273L50.3372 81.7023L50.3372 81.7023L48.5909 80.7273ZM48.5909 55.5455L46.8412 56.5143L46.8412 56.5143L48.5909 55.5455ZM40.1818 46.9545L39.1722 48.6811L39.1832 48.6874L40.1818 46.9545ZM3.45455 43.8182V41.8182H1.45455V43.8182H3.45455ZM3.45455 134V136H5.45455V134H3.45455ZM2.54545 134V40.9091H-1.45455V134H2.54545ZM0.545455 42.9091H27.8182V38.9091H0.545455V42.9091ZM27.8182 42.9091C32.7216 42.9091 36.9715 44.0033 40.6286 46.1366L42.6441 42.6815C38.3013 40.1482 33.339 38.9091 27.8182 38.9091V42.9091ZM40.6343 46.1399C44.3502 48.2912 47.2445 51.2402 49.3426 55.0167L52.8392 53.0742C50.3919 48.6689 46.9832 45.1936 42.6384 42.6782L40.6343 46.1399ZM49.3481 55.0266C51.4607 58.7792 52.5455 63.1447 52.5455 68.1818H56.5455C56.5455 62.5523 55.3272 57.4936 52.8337 53.0643L49.3481 55.0266ZM52.5455 68.1818C52.5455 73.154 51.4626 77.4902 49.3481 81.2461L52.8337 83.2084C55.3253 78.7825 56.5455 73.7551 56.5455 68.1818H52.5455ZM49.3457 81.2505C47.2486 84.9973 44.3539 87.9339 40.6343 90.0873L42.6384 93.549C46.9794 91.0358 50.3878 87.5785 52.8361 83.2041L49.3457 81.2505ZM40.6384 90.0849C36.9796 92.1915 32.7262 93.2727 27.8182 93.2727V97.2727C33.3344 97.2727 38.2931 96.0509 42.6343 93.5514L40.6384 90.0849ZM27.8182 93.2727H2V97.2727H27.8182V93.2727ZM4 95.2727V92.3636H0V95.2727H4ZM2 94.3636H27.8182V90.3636H2V94.3636ZM27.8182 94.3636C32.7887 94.3636 37.2629 93.2631 41.1804 91.0056L39.1832 87.5399C35.9492 89.4035 32.181 90.3636 27.8182 90.3636V94.3636ZM41.1804 91.0056C45.0723 88.7628 48.1324 85.6511 50.3372 81.7023L46.8447 79.7523C44.9888 83.0762 42.4429 85.6614 39.1832 87.5399L41.1804 91.0056ZM50.3372 81.7023C52.5553 77.7295 53.6364 73.2036 53.6364 68.1818H49.6364C49.6364 72.6146 48.6872 76.4523 46.8447 79.7523L50.3372 81.7023ZM53.6364 68.1818C53.6364 63.1318 52.5562 58.578 50.3406 54.5766L46.8412 56.5143C48.6862 59.8463 49.6364 63.7167 49.6364 68.1818H53.6364ZM50.3406 54.5766C48.137 50.5969 45.0765 47.4669 41.1804 45.2217L39.1832 48.6874C42.4387 50.5634 44.9843 53.1606 46.8412 56.5143L50.3406 54.5766ZM41.1914 45.228C37.272 42.9362 32.7938 41.8182 27.8182 41.8182V45.8182C32.1759 45.8182 35.9401 46.7911 39.1723 48.681L41.1914 45.228ZM27.8182 41.8182H3.45455V45.8182H27.8182V41.8182ZM1.45455 43.8182V134H5.45455V43.8182H1.45455ZM3.45455 132H0.545455V136H3.45455V132ZM56.4686 40.9091V38.9091H52.6775L54.8179 42.0382L56.4686 40.9091ZM60.105 40.9091L61.7579 39.783L61.1625 38.9091H60.105V40.9091ZM91.1959 86.5455L89.543 87.6715L90.1384 88.5455H91.1959V86.5455ZM91.5595 86.5455V88.5455H92.617L93.2124 87.6715L91.5595 86.5455ZM122.65 40.9091V38.9091H121.593L120.998 39.783L122.65 40.9091ZM126.287 40.9091L127.938 42.0382L130.078 38.9091H126.287V40.9091ZM92.8323 89.8182L91.1815 88.689L90.8323 89.1996V89.8182H92.8323ZM92.8323 134V136H94.8323V134H92.8323ZM89.9232 134H87.9232V136H89.9232V134ZM89.9232 89.8182H91.9232V89.1996L91.5739 88.689L89.9232 89.8182ZM56.4686 42.9091H60.105V38.9091H56.4686V42.9091ZM58.4521 42.0351L89.543 87.6715L92.8488 85.4194L61.7579 39.783L58.4521 42.0351ZM91.1959 88.5455H91.5595V84.5455H91.1959V88.5455ZM93.2124 87.6715L124.303 42.0351L120.998 39.783L89.9067 85.4194L93.2124 87.6715ZM122.65 42.9091H126.287V38.9091H122.65V42.9091ZM124.636 39.7799L91.1815 88.689L94.483 90.9473L127.938 42.0382L124.636 39.7799ZM90.8323 89.8182V134H94.8323V89.8182H90.8323ZM92.8323 132H89.9232V136H92.8323V132ZM91.9232 134V89.8182H87.9232V134H91.9232ZM91.5739 88.689L58.1194 39.7799L54.8179 42.0382L88.2724 90.9473L91.5739 88.689ZM306.14 40.9091H308.14V38.9091H306.14V40.9091ZM306.14 134V136H308.14V134H306.14ZM303.23 134H301.23V136H303.23V134ZM303.23 40.9091V38.9091H301.23V40.9091H303.23ZM304.14 40.9091V134H308.14V40.9091H304.14ZM306.14 132H303.23V136H306.14V132ZM305.23 134V40.9091H301.23V134H305.23ZM303.23 42.9091H306.14V38.9091H303.23V42.9091ZM383.129 64.1818L381.134 64.3243L381.266 66.1818H383.129V64.1818ZM375.81 48.5L374.448 49.9638L374.453 49.9684L375.81 48.5ZM345.72 45.0909L344.843 43.2934L344.843 43.2934L345.72 45.0909ZM336.901 52.5909L338.553 53.7186L338.558 53.7112L336.901 52.5909ZM334.856 70L336.717 69.267L336.717 69.267L334.856 70ZM338.447 75.5L337.007 76.8878L337.019 76.9011L337.033 76.9142L338.447 75.5ZM344.583 79.9545L343.629 81.712L343.641 81.719L343.654 81.7258L344.583 79.9545ZM353.31 83.4545L353.903 81.5444L353.901 81.5437L353.31 83.4545ZM363.856 86.7273L363.263 88.6374L363.267 88.6385L363.856 86.7273ZM374.31 90.9091L375.241 89.1389L375.241 89.1389L374.31 90.9091ZM381.583 96.1364L380.158 97.5394L380.169 97.5506L380.18 97.5617L381.583 96.1364ZM385.901 102.545L384.043 103.284L384.046 103.292L385.901 102.545ZM383.583 123.318L381.911 122.221L381.911 122.221L383.583 123.318ZM373.174 132.227L372.304 130.426L372.304 130.426L373.174 132.227ZM342.81 132.5L341.958 134.309L341.968 134.314L342.81 132.5ZM332.72 124.273L331.08 125.418L331.085 125.426L331.091 125.434L332.72 124.273ZM328.583 112.182V110.182H326.445L326.588 112.315L328.583 112.182ZM331.492 112.182L333.487 112.031L333.346 110.182H331.492V112.182ZM335.265 122.773L333.644 123.944L333.644 123.944L335.265 122.773ZM344.265 129.955L343.435 131.774L343.441 131.777L344.265 129.955ZM371.674 129.773L372.513 131.588L372.519 131.585L371.674 129.773ZM381.038 121.955L379.378 120.838L379.371 120.849L381.038 121.955ZM382.22 101.591L380.483 102.583L380.488 102.592L382.22 101.591ZM375.356 94.8636L376.411 93.1649L376.411 93.1649L375.356 94.8636ZM363.129 89.6364L362.536 91.5465L362.541 91.5482L363.129 89.6364ZM352.583 86.3636L351.982 88.2711L351.99 88.2738L352.583 86.3636ZM336.174 77.2273L334.726 78.6063L334.731 78.6123L336.174 77.2273ZM334.356 51.1818L336.022 52.288L336.026 52.2816L334.356 51.1818ZM344.174 42.5909L343.28 40.802L343.274 40.8047L344.174 42.5909ZM382.038 51.4091L380.349 52.4802L380.349 52.4802L382.038 51.4091ZM386.038 64.1818V66.1818H388.168L388.034 64.0555L386.038 64.1818ZM385.124 64.0393C384.635 57.2016 381.989 51.4891 377.168 47.0316L374.453 49.9684C378.48 53.6927 380.713 58.4348 381.134 64.3243L385.124 64.0393ZM377.173 47.0362C372.337 42.5337 366.011 40.3636 358.401 40.3636V44.3636C365.215 44.3636 370.496 46.2845 374.448 49.9638L377.173 47.0362ZM358.401 40.3636C353.413 40.3636 348.879 41.3244 344.843 43.2934L346.596 46.8884C350.015 45.221 353.935 44.3636 358.401 44.3636V40.3636ZM344.843 43.2934C340.827 45.2525 337.608 47.9757 335.245 51.4706L338.558 53.7112C340.498 50.8425 343.158 48.5657 346.596 46.8884L344.843 43.2934ZM335.25 51.4632C332.855 54.9714 331.674 58.9918 331.674 63.4545H335.674C335.674 59.7355 336.645 56.5135 338.553 53.7186L335.25 51.4632ZM331.674 63.4545C331.674 66.0441 332.106 68.4774 332.995 70.733L336.717 69.267C336.03 67.5226 335.674 65.5923 335.674 63.4545H331.674ZM332.995 70.733C333.886 72.9949 335.233 75.0471 337.007 76.8878L339.887 74.1122C338.449 72.6195 337.401 71.0051 336.717 69.267L332.995 70.733ZM337.033 76.9142C338.83 78.7112 341.039 80.3052 343.629 81.712L345.538 78.1971C343.218 76.9372 341.337 75.5616 339.861 74.0858L337.033 76.9142ZM343.654 81.7258C346.27 83.0973 349.297 84.3073 352.72 85.3653L353.901 81.5437C350.658 80.5412 347.866 79.4179 345.512 78.1833L343.654 81.7258ZM352.718 85.3647L363.263 88.6374L364.449 84.8171L353.903 81.5444L352.718 85.3647ZM363.267 88.6385C367.209 89.8538 370.574 91.2042 373.38 92.6793L375.241 89.1389C372.168 87.523 368.563 86.0856 364.445 84.816L363.267 88.6385ZM373.38 92.6793C376.175 94.149 378.421 95.7755 380.158 97.5394L383.008 94.7333C380.927 92.6185 378.325 90.7601 375.241 89.1389L373.38 92.6793ZM380.18 97.5617C381.936 99.2898 383.213 101.196 384.043 103.284L387.76 101.807C386.711 99.1674 385.109 96.8011 382.986 94.7111L380.18 97.5617ZM384.046 103.292C384.877 105.357 385.31 107.704 385.31 110.364H389.31C389.31 107.266 388.804 104.401 387.757 101.799L384.046 103.292ZM385.31 110.364C385.31 114.851 384.167 118.782 381.911 122.221L385.255 124.415C387.969 120.278 389.31 115.573 389.31 110.364H385.31ZM381.911 122.221C379.643 125.678 376.463 128.417 372.304 130.426L374.044 134.028C378.794 131.734 382.554 128.534 385.255 124.415L381.911 122.221ZM372.304 130.426C368.167 132.424 363.308 133.455 357.674 133.455V137.455C363.798 137.455 369.272 136.333 374.044 134.028L372.304 130.426ZM357.674 133.455C352.238 133.455 347.581 132.51 343.653 130.686L341.968 134.314C346.524 136.429 351.777 137.455 357.674 137.455V133.455ZM343.663 130.691C339.7 128.823 336.615 126.291 334.348 123.112L331.091 125.434C333.793 129.224 337.436 132.177 341.958 134.309L343.663 130.691ZM334.359 123.128C332.126 119.93 330.859 116.254 330.579 112.049L326.588 112.315C326.913 117.2 328.403 121.585 331.08 125.418L334.359 123.128ZM328.583 114.182H331.492V110.182H328.583V114.182ZM329.498 112.333C329.827 116.677 331.202 120.566 333.644 123.944L336.886 121.601C334.904 118.859 333.763 115.687 333.487 112.031L329.498 112.333ZM333.644 123.944C336.08 127.314 339.365 129.918 343.435 131.774L345.095 128.135C341.589 126.536 338.875 124.353 336.886 121.601L333.644 123.944ZM343.441 131.777C347.569 133.644 352.33 134.545 357.674 134.545V130.545C352.775 130.545 348.598 129.719 345.089 128.132L343.441 131.777ZM357.674 134.545C363.237 134.545 368.201 133.581 372.513 131.588L370.835 127.957C367.147 129.661 362.778 130.545 357.674 130.545V134.545ZM372.519 131.585C376.845 129.569 380.266 126.734 382.704 123.06L379.371 120.849C377.385 123.842 374.564 126.219 370.829 127.96L372.519 131.585ZM382.697 123.071C385.182 119.377 386.401 115.116 386.401 110.364H382.401C382.401 114.399 381.378 117.866 379.378 120.838L382.697 123.071ZM386.401 110.364C386.401 106.731 385.606 103.452 383.951 100.59L380.488 102.592C381.742 104.761 382.401 107.329 382.401 110.364H386.401ZM383.956 100.599C382.3 97.7007 379.745 95.2359 376.411 93.1649L374.3 96.5624C377.21 98.3701 379.23 100.39 380.483 102.583L383.956 100.599ZM376.411 93.1649C373.096 91.1048 368.846 89.3008 363.716 87.7246L362.541 91.5482C367.471 93.0629 371.373 94.7437 374.3 96.5624L376.411 93.1649ZM363.721 87.7262L353.176 84.4535L351.99 88.2738L362.536 91.5465L363.721 87.7262ZM353.185 84.4562C346.065 82.211 340.939 79.3025 337.617 75.8422L334.731 78.6123C338.682 82.7278 344.495 85.9102 351.982 88.271L353.185 84.4562ZM337.623 75.8483C334.383 72.445 332.765 68.3529 332.765 63.4545H328.765C328.765 69.344 330.753 74.4338 334.726 78.6063L337.623 75.8483ZM332.765 63.4545C332.765 59.2486 333.859 55.547 336.022 52.288L332.69 50.0756C330.065 54.0287 328.765 58.5089 328.765 63.4545H332.765ZM336.026 52.2816C338.215 48.9574 341.213 46.3217 345.074 44.3771L343.274 40.8047C338.832 43.042 335.285 46.1335 332.685 50.0821L336.026 52.2816ZM345.069 44.3798C348.937 42.4453 353.367 41.4545 358.401 41.4545V37.4545C352.83 37.4545 347.774 38.5547 343.28 40.802L345.069 44.3798ZM358.401 41.4545C363.466 41.4545 367.818 42.4601 371.515 44.4062L373.378 40.8665C369.015 38.5702 364.004 37.4545 358.401 37.4545V41.4545ZM371.515 44.4062C375.247 46.3701 378.178 49.0577 380.349 52.4802L383.727 50.338C381.17 46.3059 377.708 43.1451 373.378 40.8665L371.515 44.4062ZM380.349 52.4802C382.517 55.899 383.758 59.826 384.042 64.3081L388.034 64.0555C387.711 58.9619 386.286 54.3737 383.727 50.338L380.349 52.4802ZM386.038 62.1818H383.129V66.1818H386.038V62.1818Z" fill="#181F61"/>
<circle cx="198.5" cy="89.5" r="8" stroke="#181F61" stroke-width="11"/>
<circle cx="198.5" cy="89.5" r="59.5" transform="rotate(27.409 198.5 89.5)" stroke="#181F61" stroke-width="4" stroke-miterlimit="4.13357" stroke-linecap="square" stroke-dasharray="8 24 32 8 24 32"/>
<path d="M285.202 7.03713C286.327 5.82083 286.253 3.92278 285.037 2.7977C283.821 1.67263 281.923 1.74658 280.798 2.96287L285.202 7.03713ZM211.202 87.0371L285.202 7.03713L280.798 2.96287L206.798 82.9629L211.202 87.0371Z" fill="#181F61"/>
<path d="M187.268 91.9637L189.232 89.6958L184.696 85.7683L182.732 88.0363L187.268 91.9637ZM111.732 170.036C110.647 171.289 110.784 173.183 112.036 174.268C113.289 175.353 115.183 175.216 116.268 173.964L111.732 170.036ZM182.732 88.0363L111.732 170.036L116.268 173.964L187.268 91.9637L182.732 88.0363Z" fill="#181F61"/>
<path d="M281.015 174.25C282.258 175.346 284.153 175.227 285.25 173.985C286.346 172.742 286.227 170.847 284.985 169.75L281.015 174.25ZM196.015 99.2495L281.015 174.25L284.985 169.75L199.985 94.7505L196.015 99.2495Z" fill="#181F61"/>
<path d="M116.051 2.81052C114.842 1.67784 112.943 1.73988 111.811 2.9491C110.678 4.15831 110.74 6.05679 111.949 7.18947L116.051 2.81052ZM195.051 76.8105L116.051 2.81052L111.949 7.18947L190.949 81.1895L195.051 76.8105Z" fill="#181F61"/>
<path d="M196.805 0.0325867L193 78.9951L201.776 79.0929L196.805 0.0325867Z" fill="#181F61" stroke="#181F61"/>
<path d="M108 90.8512L187 93.7767V85L108 90.8512Z" fill="#181F61" stroke="#181F61"/>
<path d="M288 87.9256L209 85V93.7767L288 87.9256Z" fill="#181F61" stroke="#181F61"/>
<path d="M197.686 179.074L201.672 100.123L193.143 100L197.686 179.074Z" fill="#181F61" stroke="#181F61"/>
<line x1="114.365" y1="8.65834" x2="187.365" y2="86.6583" stroke="#181F61"/>
<line x1="200.665" y1="76.6288" x2="282.665" y2="2.6288" stroke="#181F61"/>
<line x1="209.363" y1="91.6559" x2="283.363" y2="169.656" stroke="#181F61"/>
<line x1="193.342" y1="100.365" x2="114.342" y2="174.365" stroke="#181F61"/>
</svg>
